<svg xmlns="http://www.w3.org/2000/svg" viewBox="0 0 1056 1056"><title>awaresoft</title><rect x="16" y="16" width="1024" height="1024" style="fill:#0000b7;stroke:#231f20;stroke-miterlimit:10;stroke-width:32px"/><path d="M103.78882,0l93.18591,1015.75949h-33.8993L132.90934,684.6633H47.937L16.72568,1015.75949H0L95.426,0ZM53.7611,620.2427h73.02548l-35.99-393.26988Z" transform="translate(16 16)" style="fill:#fff"/><path d="M230.8742,22.47278l59.13749,755.0775L341.98085,95.88286l53.6116,684.6633L453.38557,22.47278h16.12805L393.352,1024h-9.85616L334.51371,404.50627,287.62194,1024H276.27265L197.57216,22.47278Z" transform="translate(16 16)" style="fill:#fff"/><path d="M574.4975,0l93.18591,1015.75949H633.78412L603.618,684.6633H518.64546l-31.21129,331.09619H470.7085L566.13448,0ZM524.46979,620.2427h73.02565L561.505,226.97282Z" transform="translate(16 16)" style="fill:#fff"/><path d="M695.16112,22.47278H763.856q17.77013,0,31.21128,19.10149,13.44041,19.10148,22.40069,53.55962,8.9599,34.46277,13.5147,82.02415,4.55369,47.57853,4.55479,103.74889,0,46.45508-3.50923,86.8943a702.09713,702.09713,0,0,1-9.85615,73.0356q-6.34933,32.5857-15.3072,56.18194-8.9599,23.5953-19.71231,37.07952l72.1294,481.6612h-38.678l-68.84415-466.68H728.46316v466.68h-33.302Zm33.302,476.41841h19.26437q11.20072,0,20.68322-14.98309,9.48158-14.97474,16.42705-42.32231,6.94418-27.3355,10.82706-66.29487,3.88122-38.9399,3.88252-87.64235,0-44.94509-3.0613-82.39956-3.0624-37.448-8.66164-64.047-5.59981-26.58052-13.29074-41.57427Q766.84056,84.653,757.73337,84.64647H728.46316Z" transform="translate(16 16)" style="fill:#fff"/><path d="M1024,22.47278v64.4206H919.61375v355.0669h69.8897v64.4206h-69.8897v444.958H1024v64.4206H886.31171V22.47278Z" transform="translate(16 16)" style="fill:#fff"/></svg>